<svg width="68" height="73" viewBox="0 0 68 73" fill="none" xmlns="http://www.w3.org/2000/svg">
<path fill-rule="evenodd" clip-rule="evenodd" d="M21.9251 7.58349C24.0983 3.09522 28.6967 0 34.0179 0C39.3392 0 43.9376 3.09522 46.1108 7.58348C58.9282 12.4595 68.0359 24.8608 68.0359 39.3893C68.0359 48.7371 64.2655 57.2044 58.1624 63.3531C58.1796 62.2568 58.1886 61.1295 58.1886 59.9791C58.1886 49.1021 57.387 40.2845 56.3982 40.2845C55.4094 40.2845 54.6078 49.1021 54.6078 59.9791C54.6078 62.2259 54.642 64.3849 54.705 66.3964C50.9817 69.2527 46.6508 71.3564 41.9396 72.48C41.2455 63.3285 37.9628 56.3983 34.018 56.3983C30.0731 56.3983 26.7904 63.3285 26.0963 72.48C21.3852 71.3564 17.0543 69.2527 13.331 66.3965C13.394 64.3849 13.4282 62.226 13.4282 59.9791C13.4282 49.1021 12.6266 40.2845 11.6378 40.2845C10.6489 40.2845 9.84733 49.1021 9.84733 59.9791C9.84733 61.1295 9.8563 62.2568 9.87351 63.3532C3.77045 57.2044 0 48.7372 0 39.3893C0 24.8608 9.10769 12.4595 21.9251 7.58349ZM28.6466 11.6377C29.6355 11.6377 30.437 10.8361 30.437 9.84732C30.437 8.8585 29.6355 8.0569 28.6466 8.0569C27.6578 8.0569 26.8562 8.8585 26.8562 9.84732C26.8562 10.8361 27.6578 11.6377 28.6466 11.6377ZM40.2844 9.84732C40.2844 10.8361 39.4828 11.6377 38.494 11.6377C37.5051 11.6377 36.7035 10.8361 36.7035 9.84732C36.7035 8.8585 37.5051 8.0569 38.494 8.0569C39.4828 8.0569 40.2844 8.8585 40.2844 9.84732ZM24.1707 25.0658H19.6946V21.4851H24.1707V25.0658ZM19.6946 32.2275V28.6467H29.5419V32.2275H33.1227V28.6467H41.1797V32.2275H44.7605V28.6467H48.3413V32.2275H19.6946ZM48.3413 21.4851V25.0658H40.2845V21.4851H48.3413ZM27.7515 21.4851H36.7036V25.0658H27.7515V21.4851ZM19.6946 35.8083H48.3413V38.494H27.7515V35.8084H24.1707V38.494H19.6946V35.8083ZM19.6946 42.0748H48.3413V45.6555H44.7605V42.0748H41.1797V45.6555H33.1227V42.0748H29.5419V45.6555H19.6946V42.0748ZM19.6946 49.2364H48.3413V49.2366H40.2844V49.2364H36.7036V49.2366H27.7515V49.2364H24.1707V49.2366H19.6946V49.2364Z" fill="#4EA886"/>
</svg>
